<?xml version="1.0" standalone="no"?>
<!DOCTYPE svg PUBLIC "-//W3C//DTD SVG 20010904//EN"
 "http://www.w3.org/TR/2001/REC-SVG-20010904/DTD/svg10.dtd">
<svg version="1.0" xmlns="http://www.w3.org/2000/svg"
 width="512.000000pt" height="512.000000pt" viewBox="0 0 512.000000 512.000000"
 preserveAspectRatio="xMidYMid meet">
<metadata>
Created by potrace 1.11, written by Peter Selinger 2001-2013
</metadata>
<g transform="translate(0.000000,512.000000) scale(0.100000,-0.100000)"
fill="#000000" stroke="none">
<path d="M1124 5110 c-345 -28 -572 -121 -776 -318 -93 -90 -164 -191 -223
-315 -53 -111 -79 -203 -102 -357 -17 -106 -18 -233 -18 -1560 0 -1327 1
-1454 18 -1560 32 -214 91 -371 196 -523 61 -88 181 -207 270 -266 85 -58 229
-125 321 -150 169 -47 257 -53 793 -58 l507 -5 0 651 0 651 -185 0 -185 0 -30
28 c-26 23 -38 53 -85 219 -30 106 -55 195 -55 198 0 3 448 5 996 5 943 0 995
-1 990 -18 -3 -9 -28 -98 -56 -197 -43 -153 -55 -184 -81 -207 l-29 -28 -190
0 -190 0 0 -651 0 -651 508 5 c399 4 529 8 612 21 145 22 239 50 346 100 237
112 408 283 519 519 53 111 79 203 102 357 17 106 18 233 18 1560 0 1327 -1
1454 -18 1560 -23 154 -49 246 -101 356 -112 236 -283 408 -519 519 -107 51
-200 78 -347 102 -95 15 -243 17 -1505 19 -770 1 -1445 -2 -1501 -6z m2260
-1191 c14 -17 26 -41 26 -53 0 -17 -62 -255 -96 -368 -5 -17 -50 -18 -752 -18
l-747 0 -51 188 c-55 201 -56 229 -13 265 20 16 74 17 814 17 l793 0 26 -31z
m536 -731 c11 -18 20 -42 20 -53 0 -11 -22 -96 -49 -190 l-48 -170 -1280 -3
-1280 -2 -46 168 c-52 187 -55 211 -30 253 l17 29 1338 0 1338 0 20 -32z
m-160 -710 c0 -7 -26 -107 -59 -223 l-58 -210 -1078 0 -1078 0 -58 205 c-32
113 -58 213 -59 223 0 16 63 17 1195 17 949 0 1195 -3 1195 -12z"/>
</g>
</svg>
